<?xml version="1.0" encoding="UTF-8" standalone="no" ?>
<!DOCTYPE svg PUBLIC "-//W3C//DTD SVG 1.1//EN" "http://www.w3.org/Graphics/SVG/1.1/DTD/svg11.dtd">
<svg xmlns="http://www.w3.org/2000/svg" xmlns:xlink="http://www.w3.org/1999/xlink" version="1.1" width="1280" height="1024" viewBox="0 0 1280 1024" xml:space="preserve">
<desc>Created with Fabric.js 5.3.0</desc>
<defs>
</defs>
<g transform="matrix(1 0 0 1 640 512)" id="background-logo"  >
<rect style="stroke: none; stroke-width: 0; stroke-dasharray: none; stroke-linecap: butt; stroke-dashoffset: 0; stroke-linejoin: miter; stroke-miterlimit: 4; fill: rgb(255,255,255); fill-opacity: 0; fill-rule: nonzero; opacity: 1;"  paint-order="stroke"  x="-640" y="-512" rx="0" ry="0" width="1280" height="1024" />
</g>
<g transform="matrix(1.9211538461538462 0 0 1.9211538461538462 640 401.40664972500184)" id="logo-logo"  >
<g style=""  paint-order="stroke"   >
		<g transform="matrix(0.2024791436075944 0 0 0.20247914360759442 0 42.595574461978)"  >
<linearGradient id="SVGID_52925" gradientUnits="userSpaceOnUse" gradientTransform="matrix(1 0 0 1 501.00099999999975 760.3466980368139)"  x1="0" y1="0" x2="0" y2="815">
<stop offset="0%" style="stop-color:rgb(250,217,97);stop-opacity: 1"/>
<stop offset="100%" style="stop-color:rgb(247,107,28);stop-opacity: 1"/>
</linearGradient>
<path style="stroke: none; stroke-width: 1; stroke-dasharray: none; stroke-linecap: butt; stroke-dashoffset: 0; stroke-linejoin: miter; stroke-miterlimit: 4; fill: url(#SVGID_52925); fill-rule: nonzero; opacity: 1;"  paint-order="stroke"  transform=" translate(-985.0010000000002, -1167.6911219509554)" d="M 993.105 763.71 L 995.456 764.558 C 998.0360000000001 765.4879999999999 1000.611 766.432 1003.187 767.375 Q 1005.964 768.38 1008.743 769.383 Q 1014.7220000000001 771.543 1020.6980000000001 773.7130000000001 C 1031.539 777.6500000000001 1042.394 781.5430000000001 1053.25 785.4380000000001 C 1054.366 785.8380000000001 1055.482 786.238 1056.632 786.6520000000002 C 1072.2856817671206 792.273055891046 1087.9709310635665 797.8058104935834 1103.687000000001 803.2500000000001 C 1118.0980000000002 808.2430000000002 1132.498 813.2630000000001 1146.8680000000002 818.3730000000002 Q 1149.6620000000003 819.3660000000002 1152.4600000000003 820.3560000000001 Q 1156.3000000000002 821.7160000000001 1160.1360000000002 823.0860000000001 L 1162.4300000000003 823.8950000000001 C 1165.5820000000003 825.027 1168.1970000000003 826.1320000000001 1171.0000000000002 828.0000000000001 C 1171.4920000000002 829.7740000000001 1171.4920000000002 829.7740000000001 1171.6600000000003 831.9450000000002 L 1171.8720000000003 834.4190000000002 L 1172.0620000000004 837.1250000000002 L 1172.2970000000003 839.9700000000003 C 1172.5430000000003 842.9790000000003 1172.7710000000002 845.9890000000003 1173.0000000000002 849.0000000000002 Q 1173.3360000000002 853.1330000000003 1173.6830000000002 857.2670000000003 Q 1173.9290000000003 860.2200000000003 1174.1710000000003 863.1720000000003 C 1174.7090000000003 869.7110000000002 1175.2990000000002 876.2440000000003 1175.9270000000004 882.7750000000002 C 1178.2310000000004 906.7730000000003 1180.2300000000005 930.7970000000003 1182.2610000000004 954.8190000000002 Q 1182.8650000000005 961.9410000000001 1183.4710000000005 969.0610000000001 L 1184.6570000000004 983.0480000000001 L 1185.2130000000004 989.5980000000001 C 1186.8659734185455 1008.9939892482064 1188.3900070837894 1028.4007512685193 1189.7849999999996 1047.8169999999989 C 1190.4860000000003 1057.597 1191.2710000000004 1067.36 1192.2500000000002 1077.117 C 1192.7300000000002 1081.956 1193.1440000000002 1086.795 1193.5000000000002 1091.645 L 1193.7530000000002 1095.065 Q 1193.9950000000001 1098.3590000000002 1194.2140000000002 1101.653 C 1194.5560000000003 1109.115 1194.5560000000003 1109.115 1197.0000000000002 1116 C 1199.8030000000003 1118.344 1202.8480000000002 1120.162 1206.0000000000002 1122 L 1208.5170000000003 1123.51 C 1211.2505861350646 1125.1293515455297 1213.994980947398 1126.7303874113911 1216.7500000000005 1128.313 L 1223.1320000000003 1132.016 L 1226.5120000000004 1133.9750000000001 C 1236.2170000000003 1139.6050000000002 1245.8850000000004 1145.3000000000002 1255.5600000000004 1150.9810000000002 Q 1260.3970000000004 1153.8200000000002 1265.2380000000005 1156.6510000000003 C 1292.8530000000005 1172.8540000000003 1292.8530000000005 1172.8540000000003 1296.0000000000005 1176.0000000000002 C 1296.2800000000004 1178.2650000000003 1296.4940000000004 1180.5380000000002 1296.6830000000004 1182.8130000000003 L 1296.8640000000005 1184.9550000000004 Q 1297.1560000000004 1188.4780000000003 1297.4370000000006 1192.0000000000005 L 1297.6380000000006 1194.4570000000006 C 1298.6660000000006 1207.0370000000005 1299.5130000000006 1219.6200000000006 1300.2340000000006 1232.2220000000007 C 1300.6500000000005 1239.4420000000007 1301.1050000000007 1246.6590000000006 1301.6480000000006 1253.8710000000005 L 1301.8230000000005 1256.2090000000005 C 1301.8830000000005 1256.9990000000005 1301.9430000000004 1257.7890000000004 1302.0030000000006 1258.6040000000005 C 1303.6490000000006 1280.5440000000006 1304.8810000000005 1302.5010000000004 1306.0630000000006 1324.4710000000005 C 1307.2880000000005 1347.1990000000005 1308.7000000000005 1369.9000000000005 1310.3830000000005 1392.5990000000004 C 1311.7160000000006 1410.6140000000005 1312.7900000000004 1428.6250000000005 1313.6760000000004 1446.6670000000004 C 1314.2460000000003 1458.1130000000003 1315.0080000000005 1469.5470000000005 1315.7460000000003 1480.9820000000004 C 1316.0200000000002 1485.2850000000005 1316.2770000000003 1489.5880000000004 1316.5360000000003 1493.8910000000005 L 1316.9340000000002 1500.4930000000006 L 1317.1840000000002 1504.7050000000006 Q 1317.3560000000002 1507.6230000000005 1317.5350000000003 1510.5390000000007 L 1317.7350000000004 1513.8890000000006 C 1317.9970000000003 1516.9680000000005 1318.4480000000003 1519.9610000000005 1319.0000000000005 1522.9990000000005 C 1327.6750000000004 1525.7750000000005 1336.3760000000004 1528.4270000000006 1345.1400000000006 1530.9090000000006 C 1346.0270000000005 1531.1620000000005 1346.9140000000004 1531.4130000000005 1347.8280000000007 1531.6720000000005 L 1350.5780000000007 1532.4520000000005 C 1381.7340000000006 1541.2870000000005 1412.3300000000006 1551.3700000000003 1442.6490000000006 1562.7440000000004 C 1445.9160000000006 1563.9690000000003 1449.1860000000006 1565.1820000000005 1452.4570000000006 1566.3940000000005 L 1458.2500000000005 1568.5630000000006 L 1460.8860000000004 1569.5400000000006 C 1461.6710000000005 1569.8380000000006 1462.4560000000004 1570.1350000000007 1463.2660000000005 1570.4400000000007 L 1465.3210000000006 1571.2130000000006 C 1467.0010000000007 1572.0000000000007 1467.0010000000007 1572.0000000000007 1469.0010000000007 1574.0000000000007 C 1462.1220000000008 1573.5530000000008 1455.3140000000008 1572.9460000000006 1448.4810000000007 1572.0470000000007 C 1440.6060000000007 1571.0370000000007 1432.7230000000006 1570.2930000000008 1424.8120000000006 1569.6250000000007 L 1418.1500000000005 1569.0500000000006 L 1413.4270000000006 1568.6430000000007 C 1407.440991126096 1568.1264989033375 1401.4559800806844 1567.5984979289065 1395.472 1567.0590000000018 C 1375.3820000000007 1565.2540000000006 1355.2880000000007 1563.4970000000008 1335.1870000000006 1561.8130000000006 L 1332.1470000000006 1561.5560000000005 C 1320.4380000000006 1560.5700000000004 1308.7320000000007 1559.6690000000006 1297.0000000000007 1559.0000000000005 C 1296.611721062443 1552.1251978538526 1296.2210543722142 1545.2505307725276 1295.828000000002 1538.3759999999936 Q 1295.6280000000006 1534.8900000000003 1295.4320000000007 1531.4050000000004 C 1294.7270000000008 1518.9150000000004 1293.9760000000008 1506.4340000000004 1293.0890000000006 1493.9570000000003 C 1292.1410000000005 1480.5370000000003 1291.3260000000007 1467.1100000000004 1290.5270000000007 1453.6800000000003 L 1290.3320000000008 1450.4000000000003 Q 1289.5290000000007 1436.9120000000003 1288.7330000000009 1423.4200000000003 Q 1288.133000000001 1413.2770000000003 1287.5300000000009 1403.1330000000003 L 1286.9760000000008 1393.7490000000003 C 1286.4920000000009 1385.5840000000003 1286.0060000000008 1377.4330000000002 1285.2090000000007 1369.2910000000002 C 1284.8360000000007 1365.2060000000001 1284.6520000000007 1361.111 1284.4570000000008 1357.016 L 1284.1500000000008 1350.9440000000002 L 1283.9850000000008 1347.6640000000002 C 1282.5880000000009 1320.0660000000003 1280.885000000001 1292.4890000000003 1279.1370000000009 1264.9110000000003 L 1278.5440000000008 1255.5250000000003 L 1278.3500000000008 1252.4520000000002 L 1277.9670000000008 1246.3920000000003 C 1277.6600000000008 1241.5320000000004 1277.3450000000007 1236.6750000000002 1277.0130000000008 1231.8170000000002 C 1275.9760000000008 1216.5360000000003 1275.9760000000008 1216.5360000000003 1275.788000000001 1209.2670000000003 C 1275.7323236614368 1207.2616496453459 1275.6656559933144 1205.2566195265663 1275.5880000000009 1203.252 C 1275.5055984801506 1200.9355926180267 1275.4655917830873 1198.6178713014808 1275.468000000001 1196.3000000000004 C 1275.278000000001 1191.766 1275.006000000001 1189.0770000000002 1271.840000000001 1185.6900000000003 C 1267.280000000001 1182.1700000000003 1262.4420000000011 1179.4050000000002 1257.113000000001 1177.2100000000003 C 1250.134000000001 1174.1520000000003 1243.731000000001 1170.4740000000002 1237.220000000001 1166.5460000000003 C 1234.1560000000009 1164.7050000000004 1231.066000000001 1162.9060000000002 1227.980000000001 1161.1020000000003 C 1221.875499078676 1157.5169324951628 1215.7778213860593 1153.920259324916 1209.6870000000013 1150.3120000000013 C 1201.8272210162127 1145.6614633026952 1193.9521784825731 1141.0367716577553 1186.0620000000024 1136.4380000000015 C 1185.062000000001 1135.8530000000003 1184.059000000001 1135.2680000000003 1183.028000000001 1134.6670000000004 C 1179.1380000000008 1132.4000000000003 1175.2440000000008 1130.1370000000004 1171.334000000001 1127.9040000000005 L 1168 1126 L 1168.001 1128.73 C 1168.0261987404429 1189.7573309977768 1168.0441987406882 1250.7846647555236 1168.0550000001201 1311.8119999998344 Q 1168.063 1342.792 1168.077 1373.772 Q 1168.091 1405.5339999999999 1168.094 1437.298 Q 1168.095 1456.915 1168.107 1476.531 Q 1168.115 1489.963 1168.113 1503.395 Q 1168.112 1511.157 1168.1190000000001 1518.9189999999999 Q 1168.1260000000002 1526.013 1168.1200000000001 1533.1059999999998 Q 1168.1200000000001 1535.6849999999997 1168.124 1538.2619999999997 Q 1168.128 1541.7419999999997 1168.124 1545.2239999999997 L 1168.124 1549.1439999999998 C 1168 1552 1168 1552 1167 1553 C 1164.281 1553.105 1161.594 1553.14 1158.875 1553.125 L 1156.4 1553.114 C 1150.16 1553.0620000000001 1143.9440000000002 1552.837 1137.71 1552.5230000000001 C 1123.396 1551.8560000000002 1109.077 1551.69 1094.75 1551.5000000000002 Q 1086.96 1551.3950000000002 1079.171 1551.2800000000002 C 1078.049 1551.2680000000003 1076.9260000000002 1551.2540000000001 1075.769 1551.2400000000002 C 1067.167 1551.1150000000002 1058.577 1550.8140000000003 1049.981 1550.4880000000003 L 1046.192 1550.3460000000002 L 1037 1550 C 1036.68 1502.78 1036.432 1455.56 1036.285 1408.339 L 1036.23 1391.614 L 1036.22 1388.251 C 1036.1580000000001 1370.28 1036.048 1352.31 1035.92 1334.34 Q 1035.7240000000002 1306.6799999999998 1035.682 1279.02 C 1035.6646585922513 1267.642449473791 1035.6003247101787 1256.2650190959557 1035.4890000000007 1244.887999999999 C 1035.415 1237.0849999999998 1035.392 1229.283 1035.411 1221.48 C 1035.419 1216.977 1035.406 1212.478 1035.3310000000001 1207.976 C 1035.2644668122089 1203.8516545263262 1035.2564660066587 1199.726572531404 1035.3070000000002 1195.6020000000003 Q 1035.3170000000002 1193.3670000000002 1035.2510000000002 1191.1360000000002 C 1034.9510000000002 1180.3440000000003 1034.9510000000002 1180.3440000000003 1038.3690000000001 1176.4330000000002 C 1042.2160000000001 1173.0250000000003 1046.5320000000002 1170.4990000000003 1051.0000000000002 1168.0000000000002 Q 1053.6300000000003 1166.3660000000002 1056.2500000000002 1164.7150000000001 Q 1058.6200000000001 1163.3180000000002 1061.0000000000002 1161.938 Q 1063.6070000000002 1160.3990000000001 1066.2100000000003 1158.856 L 1068.7130000000002 1157.373 C 1071.7290000000003 1155.5620000000001 1074.6770000000001 1153.67 1077.6250000000002 1151.75 C 1085.2550000000003 1146.789 1093.0160000000003 1142.049 1100.7730000000001 1137.29 C 1108.2668997473777 1132.6881152407625 1115.7383218527232 1128.049726796224 1123.1869999999997 1123.375 C 1132.3403859290252 1117.641710112151 1141.5383321349339 1111.979871373799 1150.779999999999 1106.390000000001 L 1153.5200000000002 1104.73 L 1155.928 1103.2740000000001 C 1157.6383727485531 1102.2135015990457 1159.3293189608896 1101.1219878176598 1161 1100 C 1163.79 1099.458 1165.382 1099.61 1167.8 1101.137 L 1169.671 1102.527 L 1171.565 1103.922 C 1172.038 1104.278 1172.512 1104.632 1173 1105 C 1172.097 1084.272 1170.832 1063.605 1169 1042.938 L 1168.746 1040.0780000000002 C 1167.556 1026.7140000000002 1166.2800000000002 1013.3570000000002 1165 1000.0000000000002 C 1163.164 980.8470000000002 1161.571 961.6860000000003 1160.125 942.5000000000002 C 1158.6541685070529 923.0743233697414 1157.0708086026104 903.6573308573668 1155.375 884.2499999999989 L 1155.059 880.5960000000002 C 1153.941 867.6960000000003 1152.762 854.8300000000003 1151 842.0000000000002 L 1149.214 841.3840000000002 C 1098.761 823.9740000000003 1098.761 823.9740000000003 1081.905 817.9090000000002 C 1069.789 813.5510000000003 1057.643 809.2790000000002 1045.5 804.9990000000003 C 1003.831 790.3080000000002 1003.831 790.3080000000002 986.162 783.8780000000003 L 983.216 782.8070000000002 L 981 782 L 981.001 783.908 C 981.064 871.838 981.016 959.768 980.781 1105.566 L 980.7719999999999 1110.452 Q 980.6719999999999 1170.18 980.563 1229.909 L 980.427 1307.221 L 980.422 1309.826 L 980.3770000000001 1335.746 L 980.287 1388.462 C 980.284 1389.269 980.283 1390.075 980.2810000000001 1390.906 L 980.0010000000001 1550 C 969.5050311100591 1550.1324997591776 959.0090308123818 1550.2624997628639 948.513000000007 1550.3899999999994 Q 941.1970000000001 1550.48 933.8800000000001 1550.573 C 909.5850000000002 1550.881 885.2970000000001 1551.0800000000002 861.0000000000001 1551 L 861.0030000000002 1548.456 C 861.0790000000002 1498.7199999999998 861.1090000000002 1448.985 861.0770000000001 1399.2489999999998 L 861.0670000000001 1381.341 L 861.0650000000002 1377.7389999999998 C 861.0550000000002 1358.4869999999999 861.0780000000002 1339.2339999999997 861.1120000000002 1319.9819999999997 Q 861.1630000000002 1290.3569999999997 861.1150000000002 1260.7339999999997 C 861.0970000000002 1248.5429999999997 861.1050000000002 1236.3539999999996 861.1480000000003 1224.1629999999998 Q 861.1860000000003 1211.6309999999999 861.1350000000002 1199.0989999999997 C 861.1170000000002 1194.2759999999996 861.1150000000002 1189.4529999999997 861.1500000000002 1184.6289999999997 Q 861.1960000000003 1178.0079999999996 861.1320000000002 1171.3849999999998 C 861.1236457689233 1169.787296617503 861.1313128210395 1168.1895496265126 861.1550000000002 1166.5919999999999 C 861.4960000000002 1158.032 861.4960000000002 1158.032 858.0160000000002 1150.531 C 855.7510000000002 1148.74 853.5520000000001 1147.34 851.0000000000002 1146 L 848.2920000000003 1144.142 L 846.0460000000003 1142.746 L 843.4520000000002 1141.1180000000002 L 840.7500000000002 1139.438 C 833.0560000000003 1134.5980000000002 825.4270000000002 1129.681 817.8750000000002 1124.625 L 815.2310000000002 1122.855 C 812.1477586580264 1120.7883379787677 809.0667568504884 1118.7183367643559 805.9879999999998 1116.645 Q 803.4630000000002 1114.946 800.9380000000002 1113.25 L 798.2780000000002 1111.453 C 796.2290000000003 1110.146 794.1780000000002 1109.066 792.0000000000002 1108 L 792.0010000000002 1110.852 C 792.0255651135209 1173.2579978564609 792.0432317802516 1235.6639982374854 792.0539999999564 1298.0699999997428 L 792.0550000000002 1300.0850000000003 Q 792.0620000000001 1332.4500000000003 792.0760000000001 1364.8140000000003 Q 792.0910000000001 1399.0000000000002 792.0940000000002 1433.1860000000004 Q 792.0950000000001 1453.6770000000004 792.1070000000002 1474.1700000000003 Q 792.1150000000002 1488.2010000000002 792.1130000000002 1502.2320000000002 Q 792.1120000000002 1510.3400000000001 792.1190000000001 1518.4490000000003 Q 792.1260000000001 1525.8590000000004 792.1200000000001 1533.2690000000002 Q 792.1200000000001 1535.9610000000002 792.1240000000001 1538.6550000000002 Q 792.1290000000001 1542.2910000000002 792.1240000000001 1545.9270000000001 L 792.1310000000001 1548.083 C 792.114 1552.8860000000002 792.114 1552.8860000000002 791.0010000000001 1554 C 789.2320000000001 1554.167 787.4580000000001 1554.267 785.6840000000001 1554.34 C 784.5350000000001 1554.3919999999998 783.3860000000001 1554.442 782.2040000000001 1554.494 L 778.364 1554.649 L 772.299 1554.9109999999998 C 770.1323969137894 1555.0041633571057 767.9657297301728 1555.095830045643 765.7989999999999 1555.1859999999995 C 758.256 1555.502 750.716 1555.84 743.175 1556.176 L 740.861 1556.279 C 726.709 1556.909 712.561 1557.602 698.4159999999999 1558.376 Q 695.0459999999999 1558.561 691.6729999999999 1558.738 C 680.8109999999999 1559.314 670.0169999999999 1560.017 659.2149999999999 1561.308 C 652.1969999999999 1562.134 645.1829999999999 1562.45 638.1249999999999 1562.75 C 616.5809999999999 1563.767 595.1149999999999 1565.842 573.6409999999998 1567.792 L 567.2479999999998 1568.3719999999998 L 563.0599999999998 1568.752 C 552.5028238910535 1569.7230110052149 541.9347858579812 1570.5720676221547 531.3579999999997 1571.2989999999998 C 524.1549999999999 1571.814 517.2199999999998 1572.859 510.1709999999998 1574.414 C 507.0369999999998 1574.993 504.1789999999998 1575.106 501.0009999999998 1575 C 502.6929999999998 1571.614 506.6419999999998 1571.135 510.0539999999998 1569.945 L 512.5869999999998 1569.0439999999999 C 515.3469999999998 1568.0629999999999 518.1099999999998 1567.0939999999998 520.8749999999998 1566.1239999999998 Q 523.7549999999998 1565.11 526.6309999999997 1564.091 C 531.4992032425961 1562.3749872990652 536.3698749589176 1560.6659855272635 541.2429999999964 1558.9640000000022 Q 545.0909999999997 1557.618 548.9359999999997 1556.2659999999998 C 567.5259999999997 1549.7359999999999 586.1839999999997 1543.6889999999999 605.0959999999997 1538.1499999999999 C 611.6169999999996 1536.235 618.1199999999997 1534.2599999999998 624.6239999999997 1532.2879999999998 C 626.7495425949566 1531.6441537161293 628.8755431333523 1531.0018202201288 631.0019999999978 1530.361 Q 634.8299999999997 1529.204 638.6499999999997 1528.0279999999998 C 640.7313212974375 1527.3879383401397 642.8170376917582 1526.7622567559717 644.9069999999995 1526.151 C 646.9679999999997 1525.5259999999998 648.9909999999996 1524.7769999999998 650.9999999999997 1523.9999999999998 C 652.1799999999996 1520.4589999999998 652.3949999999996 1517.0619999999997 652.6549999999996 1513.3689999999997 L 652.8289999999996 1511.0089999999998 Q 653.1129999999996 1507.1109999999999 653.3859999999996 1503.2109999999998 L 653.5829999999996 1500.4639999999997 C 655.1059999999997 1479.2419999999997 656.3859999999996 1458.0069999999996 657.6279999999996 1436.7679999999998 Q 657.9099999999996 1431.956 658.1949999999996 1427.1429999999998 C 660.5029999999996 1388.0599999999997 662.7059999999996 1348.9709999999998 664.8779999999996 1309.879 C 665.9679999999996 1290.2839999999999 667.0629999999995 1270.6889999999999 668.2299999999996 1251.098 L 668.3729999999996 1248.686 C 668.7649999999996 1242.1129999999998 669.1559999999996 1235.54 669.5579999999995 1228.9679999999998 Q 669.7919999999996 1225.1649999999997 670.0199999999995 1221.3639999999998 Q 670.2339999999996 1217.8169999999998 670.4609999999996 1214.2689999999998 C 670.8239999999996 1208.3249999999998 671.0349999999995 1202.4169999999997 671.0439999999995 1196.4609999999998 L 671.0799999999995 1192.7309999999998 Q 671.1059999999994 1189.2339999999997 671.0269999999995 1185.7369999999999 C 671.1029999999995 1178.194 671.1029999999995 1178.194 673.6179999999995 1174.8459999999998 C 675.6519999999995 1173.0189999999998 677.7129999999995 1171.4959999999999 679.9999999999994 1169.9999999999998 L 683.2049999999995 1167.6989999999998 L 686.3159999999995 1165.6879999999999 L 688.0429999999994 1164.5629999999999 C 689.8799175764037 1163.3705646560827 691.719923761002 1162.182893997437 693.5629999999986 1161.0000000000002 L 697.4379999999994 1158.4839999999997 Q 701.3499999999995 1155.9439999999997 705.2679999999995 1153.4139999999998 C 709.6499999999994 1150.5819999999997 714.0179999999995 1147.7279999999998 718.3849999999994 1144.8729999999998 C 725.0987330613426 1140.4802298535624 731.8271038449972 1136.1098721946823 738.5699999999978 1131.7620000000009 C 745.8699999999993 1127.0559999999998 753.1339999999993 1122.2969999999998 760.3749999999993 1117.4999999999998 L 763.1349999999993 1115.6799999999998 L 765.7099999999994 1113.9689999999998 L 768.0009999999994 1112.4509999999998 C 771.8089999999994 1109.7999999999997 771.8089999999994 1109.7999999999997 773.4919999999994 1105.6449999999998 L 773.6599999999994 1102.8129999999996 L 773.8719999999994 1099.5669999999996 L 774.0619999999994 1095.9999999999995 L 774.2989999999994 1092.2059999999994 C 774.5489999999994 1088.1379999999995 774.7769999999994 1084.0699999999995 774.9999999999994 1079.9999999999995 C 775.5429999999994 1070.1969999999994 775.5429999999994 1070.1969999999994 775.7599999999994 1066.3239999999996 L 775.9899999999994 1062.1469999999997 C 776.8339999999995 1046.8569999999997 777.9069999999995 1031.5859999999998 778.9999999999994 1016.3129999999996 L 779.2529999999995 1012.7449999999997 C 780.1856807069116 999.5749113138726 781.2073707122715 986.4112772807035 782.3179999999995 973.2550000000007 C 782.9859999999995 965.3219999999997 783.5249999999995 957.3849999999996 783.9999999999995 949.4379999999996 C 784.5329999999996 940.7599999999996 785.1269999999995 932.0949999999997 785.9369999999996 923.4379999999996 C 786.9119999999996 912.9329999999997 787.5769999999995 902.4119999999997 788.2439999999996 891.8839999999997 Q 788.5339999999995 887.3809999999996 788.8389999999996 882.8789999999997 L 789.2419999999996 876.8709999999996 L 789.4429999999996 873.8649999999997 C 789.8189999999996 868.1249999999997 790.1339999999997 862.3879999999997 790.3859999999996 856.6419999999997 C 790.5419999999996 853.2109999999997 790.7359999999996 849.7819999999997 790.9359999999996 846.3519999999997 Q 791.0609999999996 843.9589999999997 791.1359999999996 841.5609999999997 C 791.2029999999996 839.3579999999997 791.3309999999997 837.1649999999997 791.4719999999996 834.9649999999997 C 791.5259999999996 833.7339999999997 791.5819999999997 832.5029999999997 791.6359999999996 831.2339999999997 C 793.5029999999996 826.8059999999997 795.9359999999996 825.9659999999997 800.2259999999997 824.0899999999997 L 803 823 L 805.414 822.044 C 807.8471348785134 821.1338496658013 810.294089462882 820.2610803058726 812.7539999999999 819.4259999999999 L 815.532 818.454 C 817.5071144732923 817.7631272102133 819.4831161054497 817.0747933083225 821.4600000000006 816.388999999999 C 826.8570000000001 814.5159999999998 832.2470000000001 812.6189999999999 837.6360000000001 810.7229999999998 L 841.0110000000001 809.5359999999998 C 852.3380000000001 805.5459999999998 863.6110000000001 801.4109999999998 874.8750000000001 797.2499999999999 C 895.9520000000001 789.4699999999999 917.0670000000001 781.7999999999998 938.1980000000001 774.1669999999999 L 941.7320000000001 772.8889999999999 Q 945.138 771.6589999999999 948.5470000000001 770.4359999999999 C 953.6000000000001 768.6179999999999 958.6330000000002 766.7689999999999 963.6290000000001 764.7979999999999 L 966.2440000000001 763.7819999999999 C 967.8104129319053 763.1710750502552 969.370495583671 762.5440418306032 970.9240000000002 761.9009999999998 C 978.916 758.798 985.3340000000001 760.833 993.1050000000001 763.7109999999999 M 862.57 872.743 C 858.6170000000001 878.426 854.87 884.9960000000001 854.88 892.043 L 854.875 894.53 L 854.886 897.246 L 854.886 900.114 Q 854.8879999999999 904.8140000000001 854.9019999999999 909.513 L 854.906 916.023 Q 854.9129999999999 924.5980000000001 854.9309999999999 933.173 Q 854.9449999999999 941.919 854.9509999999999 950.667 Q 854.9669999999999 967.8340000000001 855.0009999999999 985.001 C 861.9409999999999 983.516 861.9409999999999 983.516 868.7689999999999 981.597 L 871.2449999999999 980.817 L 873.8119999999999 979.997 L 876.5239999999999 979.139 C 878.3969568431976 978.5449605308967 880.2692912028009 977.9489602042148 882.1409999999992 977.351 Q 886.4569999999999 975.975 890.7769999999998 974.611 Q 893.5129999999998 973.744 896.2499999999998 972.871 L 898.8659999999998 972.045 C 902.7329999999997 971.0699999999999 902.7329999999997 971.0699999999999 905.9999999999998 969.001 C 906.1209999999998 966.285 906.1779999999998 963.5939999999999 906.1919999999998 960.876 C 906.230541946228 957.1794266441094 906.2575420778343 953.4827419587717 906.2729999999999 949.7860000000003 L 906.2889999999998 946.851 Q 906.3289999999997 939.151 906.3499999999998 931.45 C 906.3659999999998 926.1600000000001 906.4109999999998 920.8720000000001 906.4619999999998 915.5830000000001 C 906.4959999999998 911.5070000000001 906.5069999999997 907.431 906.5129999999998 903.3550000000001 Q 906.5229999999998 900.4320000000001 906.5589999999999 897.5100000000001 C 906.9609999999999 881.5530000000001 906.9609999999999 881.5530000000001 899.1849999999998 868.089 C 893.4349999999998 862.673 887.8449999999998 861.4680000000001 880.0659999999998 861.629 C 872.4959999999998 862.546 867.2759999999998 866.988 862.5699999999998 872.743" stroke-linecap="round" />
</g>
		<g transform="matrix(0.2024791436075944 0 0 0.20247914360759442 -0.5534342054929695 -77.71975922024012)"  >
<linearGradient id="SVGID_52926" gradientUnits="userSpaceOnUse" gradientTransform="matrix(1 0 0 1 740.8993099410757 339.60633235719206)"  x1="0" y1="0" x2="0" y2="468">
<stop offset="0%" style="stop-color:rgb(250,217,97);stop-opacity: 1"/>
<stop offset="100%" style="stop-color:rgb(247,107,28);stop-opacity: 1"/>
</linearGradient>
<path style="stroke: none; stroke-width: 1; stroke-dasharray: none; stroke-linecap: butt; stroke-dashoffset: 0; stroke-linejoin: miter; stroke-miterlimit: 4; fill: url(#SVGID_52926); fill-rule: nonzero; opacity: 1;"  paint-order="stroke"  transform=" translate(-982.2677100638991, -573.4801255068485)" d="M 987.75 341.625 C 993.264 344.339 996.576 348.343 999 354 C 1000.014 359.646 999.455 363.98199999999997 996.312 368.813 C 994.383 371.429 992.544 373.416 990.125 375.625 C 987.618 377.946 987.618 377.946 987.688 381.813 L 988 385 C 992.882 384.346 997.673 383.497 1002.5 382.5 C 1024.115 378.034 1048.423 378.079 1067.938 389.75 C 1072.238 392.858 1074.69 395.816 1076 401 C 1076.361 404.652 1076.561 408.257 1076.629 411.926 C 1076.7559999999999 414.926 1076.7559999999999 414.926 1078.1909999999998 416.78499999999997 C 1080.494 418.332 1082.7549999999999 419.21399999999994 1085.3749999999998 420.12499999999994 L 1088.2109999999998 421.1329999999999 C 1105.8849999999998 426.62799999999993 1127.6849999999997 421.6339999999999 1145.0159999999998 416.6719999999999 C 1148 416 1148 416 1151 417 C 1139.79 431.52 1128.17 445.213 1115 458 C 1117.69 461.565 1120.439 464.358 1123.938 467.125 C 1128.186249495331 470.5303617270233 1132.3742314519634 474.01023401354854 1136.5 477.5629999999999 C 1141.49 481.841 1146.627 485.71999999999997 1152.051 489.441 L 1154 491 L 1154 493 C 1138.089 495.948 1122.473 498.489 1106.25 498.437 L 1102.745 498.43 C 1089.724 498.202 1073.9029999999998 496.928 1063.75 487.813 C 1060.318 483.493 1060.653 479.144 1060.625 473.875 C 1060.721 467.886 1060.721 467.886 1058.309 462.605 C 1055.911 460.958 1053.749 459.945 1051 459 L 1048.355 458.039 C 1045.9354935408912 457.2482453003566 1043.48129417415 456.5678765024252 1041 456 L 1038.629 455.445 C 1020.2219999999999 452.327 1005.5469999999999 458.726 988.9999999999999 467 L 988.9999999999999 544 C 999.8139999999999 549.407 1010.4849999999999 554.467 1021.6139999999999 559.086 Q 1024.3329999999999 560.22 1027.047 561.363 L 1030.229 562.6850000000001 C 1032.88 563.9430000000001 1034.848 565.0160000000001 1037 567.0000000000001 C 1037.479 569.1560000000001 1037.479 569.1560000000001 1037.451 571.6830000000001 L 1037.452 574.5560000000002 L 1037.398 577.6520000000002 L 1037.414 584.1310000000002 C 1037.3993346435238 587.5390650502903 1037.3746678706414 590.9470797253407 1037.3400000000001 594.3550000000002 C 1037.3186624591838 597.6416281125607 1037.3173291011537 600.9283556568358 1037.3360000000002 604.2150000000006 L 1037.27 607.3050000000003 C 1037.289 609.9990000000003 1037.364 612.3820000000003 1038 615.0000000000003 C 1040.653 617.7010000000004 1040.653 617.7010000000004 1044 619.0000000000003 L 1046.117 620.0470000000004 L 1047.875 620.7500000000003 L 1051 622 L 1050.857 619.708 C 1050.6689999999999 616.265 1050.5529999999999 612.822 1050.4379999999999 609.375 L 1050.2089999999998 605.77 C 1049.9919999999997 597.1469999999999 1049.9919999999997 597.1469999999999 1052.7889999999998 593.9639999999999 C 1055.1229999999998 592.382 1057.4369999999997 591.1719999999999 1059.9999999999998 589.9999999999999 C 1061.2585546199325 589.2883186678965 1062.5139006606832 588.5709780731817 1063.7659999999998 587.8479999999998 C 1064.9149999999997 587.2589999999998 1066.0649999999998 586.6689999999999 1067.2499999999998 586.0629999999999 L 1070.7659999999998 584.2229999999998 C 1075.3659999999998 582.4829999999998 1077.783 583.4969999999998 1082.264 585.3479999999998 C 1083.501445940261 585.9143676841492 1084.7364572970894 586.4860396077553 1085.9689999999998 587.0629999999999 L 1087.9969999999998 587.9939999999999 Q 1091.2509999999997 589.492 1094.4999999999998 590.9999999999999 Q 1098.9719999999998 593.0589999999999 1103.4489999999998 595.1089999999999 L 1105.6779999999999 596.132 C 1112.6781910780974 599.3211309015397 1119.7384706825414 602.3766846898351 1126.855 605.297 L 1129.1759999999997 606.266 L 1131.1419999999996 607.0709999999999 C 1133.3899999999996 608.1949999999999 1135.1279999999997 609.309 1136.9999999999995 610.9999999999999 C 1137.5189999999996 613.1449999999999 1137.5189999999996 613.1449999999999 1137.5459999999996 615.6549999999999 L 1137.6059999999995 618.5059999999999 L 1137.6089999999995 621.5739999999998 L 1137.6589999999994 624.7229999999998 C 1137.7079999999994 628.0439999999999 1137.7289999999994 631.3659999999999 1137.7499999999993 634.6869999999999 Q 1137.7919999999992 638.0639999999999 1137.8399999999992 641.4389999999999 C 1137.9139999999993 646.9599999999998 1137.9629999999993 652.4789999999998 1137.9999999999993 657.9999999999999 L 1148.9999999999993 662.9999999999999 L 1148.7889999999993 657.4529999999999 Q 1148.7049999999992 653.8519999999999 1148.6249999999993 650.2499999999999 L 1148.4729999999993 646.5939999999999 C 1148.4179999999992 643.3 1148.4489999999994 640.2489999999999 1148.9999999999993 636.9999999999999 C 1151.5819999999994 634.3749999999999 1151.5819999999994 634.3749999999999 1154.9999999999993 632.9999999999999 L 1158.4729999999993 631.2969999999999 L 1162.0619999999992 629.7499999999999 L 1165.6599999999992 628.1719999999999 C 1169.8349999999991 626.7069999999999 1172.3059999999991 626.3609999999999 1176.452999999999 627.9259999999999 L 1179.249999999999 629.3129999999999 C 1187.0659999999991 633.0769999999999 1195.009999999999 636.5209999999998 1202.9779999999992 639.9519999999999 C 1218.876999999999 646.8769999999998 1218.876999999999 646.8769999999998 1221.999999999999 649.9999999999999 C 1222.1239999999991 651.5429999999999 1222.1799999999992 653.0919999999999 1222.2079999999992 654.6399999999999 L 1222.268999999999 657.6809999999999 L 1222.319999999999 661.0459999999999 L 1222.383999999999 664.5699999999999 C 1222.566999999999 675.3259999999999 1222.673999999999 686.084 1222.7559999999992 696.842 C 1222.816999999999 704.788 1222.9199999999992 712.732 1223.077999999999 720.678 C 1223.185999999999 726.269 1223.242999999999 731.86 1223.263999999999 737.453 C 1223.2779999999989 740.7909999999999 1223.320999999999 744.122 1223.404999999999 747.459 C 1223.933999999999 769.3929999999999 1223.933999999999 769.3929999999999 1219.1519999999991 775.044 C 1216.059999999999 777.962 1212.7269999999992 779.9789999999999 1208.999999999999 782 C 1207.703197029873 782.935682923124 1206.4229979398706 783.8941653147275 1205.1599999999992 784.875 L 1202.0619999999992 787 C 1189.7909999999993 795.535 1189.7909999999993 795.535 1178.5979999999993 805.383 C 1174.9529999999993 807.652 1172.0159999999992 806.8530000000001 1167.9999999999993 806 C 1164.7159999999992 805.031 1161.5289999999993 803.847 1158.3279999999993 802.633 L 1155.4959999999992 801.5830000000001 C 1152.4109999999991 800.4380000000001 1149.3299999999992 799.2810000000001 1146.249999999999 798.1250000000001 Q 1142.982999999999 796.9090000000001 1139.713999999999 795.6970000000001 Q 1134.596999999999 793.7970000000001 1129.480999999999 791.8930000000001 C 1118.1509999999992 787.6750000000002 1106.7939999999992 783.5300000000002 1095.433999999999 779.3930000000001 C 1076.5058975356483 772.5042296534627 1057.6044237333153 765.5425112497937 1038.7299999999975 758.5080000000008 Q 1031.133999999999 755.6760000000002 1023.5319999999991 752.8590000000002 L 1011.6639999999991 748.4560000000001 L 1005.8979999999991 746.3190000000002 Q 1001.8779999999991 744.8290000000002 997.8589999999991 743.3360000000002 L 995.4559999999991 742.4480000000002 L 993.1869999999991 741.6030000000002 L 991.0309999999992 740.8040000000002 C 989.0759999999991 740.0300000000002 987.2139999999991 739.1430000000003 985.3209999999991 738.2290000000002 C 979.8809999999991 736.2160000000001 975.7659999999992 737.9310000000002 970.5269999999991 739.8980000000001 L 967.3519999999992 741.0820000000001 L 963.9379999999992 742.3750000000001 L 960.3039999999992 743.7360000000001 C 956.5337098182504 745.1512545665074 952.7657049164227 746.5725897488668 948.9999999999998 747.9999999999998 L 945.626 749.275 Q 936.98 752.5459999999999 928.3399999999999 755.832 C 918.293086572934 759.6479039716999 908.2424150256488 763.4539058199024 898.1879999999999 767.2500000000033 L 895.2729999999999 768.352 C 885.0860296290284 772.2041147296183 874.8933517523985 776.0411189495759 864.6950000000018 779.8629999999986 L 862.1969999999999 780.799 C 858.1207789471523 782.3254159037951 854.0437784152025 783.8497494360157 849.9660000000001 785.3719999999985 C 841.0736187055845 788.6967791483743 832.1994860111763 792.0701629237257 823.3439999999986 795.4920000000003 L 817.5089999999999 797.74 C 813.7818488179798 799.176530510517 810.0578399338482 800.6212006236412 806.3369999999985 802.0740000000003 L 801.2699999999999 804.0269999999999 L 798.9489999999998 804.943 C 791.8819999999998 807.645 791.8819999999998 807.645 787.9999999999999 807 C 785.7739999999999 805.738 785.7739999999999 805.738 783.5159999999998 803.957 L 780.9559999999999 801.97 L 778.2499999999999 799.813 L 772.5979999999998 795.398 L 769.7499999999999 793.155 C 767.2237582322108 791.177967928019 764.6806653525075 789.2225631787281 762.1209999999996 787.2889999999998 L 759.8449999999999 785.567 L 755.6829999999999 782.427 C 754.4514510206827 781.4903894434988 753.2307037860597 780.539660029751 752.0209999999998 779.575 C 750.6881077109466 778.5351023930306 749.3199715468234 777.5411858232872 747.9189999999999 776.595 C 744.7079999999999 774.226 742.3969999999998 772.359 741.2539999999999 768.447 C 740.959 765.333 740.9189999999999 762.305 740.9649999999999 759.177 L 740.9219999999999 755.6220000000001 C 740.887 751.7550000000001 740.91 747.8910000000001 740.9379999999999 744.023 C 740.9359999999999 741.333 740.9239999999999 738.642 740.9139999999999 735.951 C 740.8999999999999 730.317 740.9189999999999 724.684 740.9569999999999 719.0500000000001 C 741.0009999999999 712.542 740.9859999999999 706.037 740.9419999999999 699.5290000000001 Q 740.8889999999999 691.1340000000001 740.9219999999999 682.7390000000001 C 740.9355080585111 679.4003353103694 740.9315080035116 676.0616227374803 740.9099999999999 672.7230000000005 C 740.889 669.0020000000002 740.92 665.2850000000002 740.9649999999999 661.5640000000002 L 740.9159999999999 658.2230000000002 C 741.078 650.9380000000002 741.078 650.9380000000002 743.737 648.2340000000002 C 745.783 646.9280000000001 747.762 645.9300000000002 750 645.0000000000001 L 753.212 643.4100000000001 L 756.301 642.0630000000001 L 759.764 640.5390000000001 L 763.312 639.0000000000001 Q 766.807 637.4700000000001 770.301 635.9370000000001 L 773.6980000000001 634.4570000000001 C 777.7840000000001 632.6540000000001 781.8360000000001 630.7790000000001 785.8800000000001 628.8830000000002 C 788 628 788 628 790 628 L 790 683 C 801.384 678.11 801.384 678.11 812.767 673.217 L 817.051 671.379 L 819.2940000000001 670.413 C 822.1750000000001 669.178 825.0250000000001 667.992 828.0000000000001 667 L 827.9660000000001 664.901 C 827.8560000000001 657.699 827.7800000000001 650.497 827.7250000000001 643.294 C 827.702499953195 640.6052002072045 827.6684996421986 637.916508947428 827.6230000000002 635.2279999999994 C 827.5620000000001 631.3649999999999 827.5340000000001 627.5029999999999 827.5120000000002 623.641 L 827.4340000000002 619.991 C 827.4310000000002 611.742 827.4310000000002 611.742 829.9230000000002 608.492 L 833 607 L 835.08 605.961 C 837.601 604.738 840.1500000000001 603.6080000000001 842.719 602.488 L 845.5540000000001 601.235 Q 848.5120000000001 599.9300000000001 851.474 598.635 C 854.494 597.3149999999999 857.5070000000001 595.982 860.5200000000001 594.646 L 866.2810000000001 592.1129999999999 L 869.0060000000001 590.9079999999999 L 871.5640000000001 589.7939999999999 L 873.8000000000001 588.8149999999998 C 876 588 876 588 881 587 L 882 643 L 899 635.75 L 904.316 633.487 L 908.562 631.6719999999999 L 910.729 630.752 C 915.582 628.673 920.296 626.3979999999999 925 624 L 924.984 621.87 Q 924.9200000000001 611.917 924.9770000000001 601.963 C 924.9950000000001 598.552 924.9990000000001 595.1419999999999 924.969 591.73 C 924.9350000000001 587.8050000000001 924.966 583.8820000000001 925 579.957 L 924.941 576.257 C 925.081 568.0429999999999 925.081 568.0429999999999 927.571 565.217 C 929.6600000000001 563.861 931.687 562.917 934 562 Q 935.938 561.055 937.874 560.103 C 939.1997748380866 559.5082468195494 940.5281206422751 558.9192412898126 941.8589999999996 558.3360000000001 L 944.0160000000001 557.3699999999999 Q 947.3800000000001 555.8659999999999 950.7500000000001 554.3749999999999 Q 954.1400000000001 552.8729999999999 957.5270000000002 551.3589999999999 C 958.9228142820855 550.7340832328069 960.3208229349718 550.1140793953324 961.7209999999998 549.4990000000001 C 966.7360000000001 547.3089999999999 966.7360000000001 547.3089999999999 971.0000000000001 543.9999999999999 C 971.6140000000001 540.9489999999998 971.6140000000001 540.9489999999998 971.5280000000001 537.3779999999999 L 971.5530000000001 535.329 C 971.5760000000001 533.058 971.5710000000001 530.7869999999999 971.565 528.516 L 971.601 523.6379999999999 C 971.632 519.2159999999999 971.637 514.795 971.636 510.37299999999993 C 971.637 506.68299999999994 971.649 502.99299999999994 971.661 499.3019999999999 Q 971.6999999999999 486.2419999999999 971.6859999999999 473.1799999999999 C 971.679 464.19799999999987 971.7119999999999 455.2159999999999 971.7649999999999 446.2329999999999 Q 971.8299999999999 434.6679999999999 971.8209999999999 423.10199999999986 C 971.819 418.49599999999987 971.8269999999999 413.89099999999985 971.862 409.28499999999985 Q 971.908 402.78599999999983 971.865 396.28599999999983 Q 971.8580000000001 393.9019999999998 971.888 391.51899999999983 C 972.289 383.24399999999986 972.289 383.24399999999986 969.448 375.77799999999985 C 967.701 374.28299999999984 965.971 373.16799999999984 964 371.99999999999983 C 960.748 367.5919999999998 958.553 362.93199999999985 958.812 357.37499999999983 C 960.092 350.66999999999985 964.368 345.87699999999984 969.812 341.99999999999983 C 975.87 338.60299999999984 981.429 339.1399999999998 987.75 341.62499999999983 M 981 558 Q 980.894 580.414 980.845 602.827 C 980.8290000000001 609.765 980.808 616.703 980.774 623.64 C 980.7418359069935 630.3312907663942 980.7221692060248 637.0226357705039 980.7149999999998 643.7140000000012 Q 980.707 647.55 980.683 651.385 C 980.6635009106575 654.9576316647264 980.6555008692192 658.5303168371122 980.6590000000001 662.1029999999989 L 980.627 665.329 L 980.6389999999999 668.2729999999999 L 980.6309999999999 670.8349999999999 C 981.0859999999999 673.502 981.9039999999999 674.3449999999999 983.9999999999999 675.9999999999999 C 986.0639999999999 677.0589999999999 986.0639999999999 677.0589999999999 988.4159999999999 677.9069999999999 L 991.145 678.9549999999999 L 994.121 680.0699999999999 L 997.241 681.262 C 1000.637 682.5569999999999 1004.037 683.8409999999999 1007.438 685.125 Q 1011.007 686.483 1014.5749999999999 687.844 Q 1021.8369999999999 690.6120000000001 1029.1029999999998 693.373 C 1037.8141230360654 696.6950501739192 1046.5141711714564 700.0460687143443 1055.203000000001 703.4260000000008 C 1072.6739999999998 710.2 1090.1769999999997 716.8900000000001 1107.6879999999996 723.5630000000001 C 1124.2539999999997 729.8750000000001 1140.8029999999997 736.2280000000001 1157.3119999999997 742.6870000000001 L 1159.8359999999996 743.6740000000001 Q 1168.9809999999995 747.2500000000001 1178.1249999999995 750.8330000000001 Q 1184.7459999999996 753.426 1191.3749999999995 756.0000000000001 L 1194.5829999999996 757.2600000000001 L 1197.4609999999996 758.3750000000001 L 1199.9229999999995 759.3360000000001 C 1202.1129999999996 760.1520000000002 1202.1129999999996 760.1520000000002 1204.9999999999995 760.0000000000001 L 1204.9999999999995 658 L 1188.9999999999995 650 L 1180.9999999999995 646 L 1178.9999999999995 646 L 1178.9999999999995 691 Q 1168.4819999999995 686.814 1157.9669999999996 682.62 Q 1154.3919999999996 681.194 1150.8149999999996 679.771 C 1147.3835085695039 678.4054030853232 1143.9528412785608 677.0377361697841 1140.5229999999988 675.6680000000008 L 1137.3029999999997 674.389 C 1129.0379999999996 671.0840000000001 1129.0379999999996 671.0840000000001 1125.4049999999997 669.208 C 1123.1509999999998 667.85 1123.1509999999998 667.85 1120.9999999999998 668 L 1120.9999999999998 619 C 1107.4609999999998 612.205 1107.4609999999998 612.205 1093.6879999999999 606 L 1090.947 604.809 L 1088.3239999999998 603.687 L 1086.014 602.699 C 1083.8829999999998 601.8359999999999 1083.8829999999998 601.8359999999999 1081 602 L 1081 649 C 1070.931 645.224 1060.882 641.432 1050.875 637.5 L 1047.402 636.145 C 1039.195 632.923 1031.085 629.514 1023 626 L 1023.002 624.129 C 1023.005 617.7040000000001 1022.966 611.2810000000001 1022.9019999999999 604.857 C 1022.8841633037116 602.4593769612754 1022.8768299000138 600.0616872886226 1022.8799999999999 597.6639999999999 C 1022.8829999999999 594.218 1022.8469999999999 590.774 1022.8049999999998 587.328 L 1022.8319999999999 584.076 C 1022.7769999999999 581.263 1022.6559999999998 578.736 1021.9999999999999 576 C 1019.4929999999999 573.309 1019.4929999999999 573.309 1015.9999999999999 572 L 1012.6439999999999 570.368 L 1009.0269999999999 568.801 L 1007.0709999999999 567.951 Q 1005.0389999999999 567.071 1003.0049999999999 566.1990000000001 C 1000.9359999999999 565.3120000000001 998.8729999999999 564.4140000000001 996.8109999999999 563.5140000000001 L 992.8399999999999 561.8010000000002 L 989.2259999999999 560.2430000000002 C 986.4339999999999 559.1670000000001 983.9249999999998 558.5370000000001 980.9999999999999 558.0000000000001" stroke-linecap="round" />
</g>
		<g transform="matrix(0.2024791436075944 0 0 0.20247914360759442 19.61464871706877 -6.9273083675307845)"  >
<linearGradient id="SVGID_52927" gradientUnits="userSpaceOnUse" gradientTransform="matrix(1 0 0 1 1054.6260000000007 861.2169704109842)"  x1="0" y1="0" x2="0" y2="124">
<stop offset="0%" style="stop-color:rgb(250,217,97);stop-opacity: 1"/>
<stop offset="100%" style="stop-color:rgb(247,107,28);stop-opacity: 1"/>
</linearGradient>
<path style="stroke: none; stroke-width: 1; stroke-dasharray: none; stroke-linecap: butt; stroke-dashoffset: 0; stroke-linejoin: miter; stroke-miterlimit: 4; fill: url(#SVGID_52927); fill-rule: nonzero; opacity: 1;"  paint-order="stroke"  transform=" translate(-1081.87344013182, -923.1084852054921)" d="M 1094.195 866.137 C 1101.691 871.117 1106.289 879.4559999999999 1108.538 888.059 C 1109.175 892.117 1109.13 896.0949999999999 1109.113 900.197 L 1109.114 902.977 C 1109.114 906.002 1109.105 909.026 1109.097 912.0509999999999 L 1109.093 918.3509999999999 Q 1109.086 926.6349999999999 1109.068 934.9179999999999 Q 1109.055 943.3749999999999 1109.049 951.8299999999999 Q 1109.033 968.4159999999999 1109 984.9999999999999 C 1105.13 984.4879999999999 1101.386 983.9539999999998 1097.644 982.8329999999999 L 1095.288 982.1329999999998 L 1092.812 981.3829999999998 L 1090.202 980.6019999999999 Q 1087.482 979.7859999999998 1084.766 978.9619999999999 C 1082.009639640889 978.1295417058957 1079.2516342380934 977.3025400858409 1076.4919999999997 976.4810000000001 L 1071.1870000000001 974.8829999999999 L 1068.7120000000002 974.1429999999999 L 1066.3550000000002 973.4269999999999 L 1064.3130000000003 972.81 C 1061.1350000000002 971.698 1058.0850000000003 970.3489999999999 1055.0000000000002 969 Q 1054.8940000000002 952.193 1054.8440000000003 935.385 Q 1054.8220000000003 927.58 1054.7740000000003 919.774 Q 1054.7260000000003 912.237 1054.7150000000004 904.699 C 1054.7099970623815 902.7853035599763 1054.698997008368 900.8716274965755 1054.6820000000007 898.9579999999997 C 1054.6633329414535 896.2703759684255 1054.6556662105706 893.5826867897918 1054.6590000000006 890.8950000000002 L 1054.6260000000007 888.5169999999999 C 1054.6760000000006 879.7869999999999 1057.6990000000008 873.3389999999999 1063.6960000000006 866.992 C 1073.5570000000007 858.468 1083.4740000000006 860.4219999999999 1094.1960000000006 866.137" stroke-linecap="round" />
</g>
</g>
</g>
<g transform="matrix(1.9211538461538462 0 0 1.9211538461538462 639.1606699755315 705.0878382472162)" id="text-logo"  >
<g style=""  paint-order="stroke"   >
		<g transform="matrix(1 0 0 1 0 0)" id="text-logo-path-0"  >
<path style="stroke: none; stroke-width: 0; stroke-dasharray: none; stroke-linecap: butt; stroke-dashoffset: 0; stroke-linejoin: miter; stroke-miterlimit: 4; fill: rgb(255,255,255); fill-rule: nonzero; opacity: 1;"  paint-order="stroke"  transform=" translate(-150.15, 20.97)" d="M 4.2 0 L 14.4 0 L 14.4 -15.54 L 15.54 -15.54 L 24.9 0 L 35.7 0 L 25.68 -16.62 C 31.74 -18.9 35.16 -21.96 35.16 -28.98 C 35.16 -37.08 28.26 -42 15.84 -42 L 4.2 -42 L 1.8 -34.2 L 4.2 -34.2 Z M 14.4 -22.2 L 14.4 -34.2 L 15.84 -34.2 C 21.54 -34.2 24.36 -32.22 24.36 -28.26 C 24.36 -24.18 21.54 -22.2 15.84 -22.2 Z M 66 -42 L 52.8 -42 L 50.4 -34.2 L 52.62 -34.2 L 41.4 0 L 51.6 0 L 53.88 -7.2 L 67.32 -7.2 L 69.6 0 L 79.8 0 Z M 56.34 -15 L 60.6 -28.62 L 64.86 -15 Z M 87.96 0 L 98.16 0 L 98.16 -42 L 87.96 -42 L 85.56 -34.2 L 87.96 -34.2 Z M 109.26 0 L 117.9 0 L 117.9 0.06 L 122.1 0 C 134.04 0 142.02 -7.56 142.02 -21.06 C 142.02 -34.02 134.58 -42 122.1 -42 L 109.26 -42 L 106.86 -34.2 L 109.26 -34.2 Z M 119.46 -7.8 L 119.46 -34.2 L 122.1 -34.2 C 128.22 -34.2 131.22 -29.52 131.22 -21.06 C 131.22 -12.06 128.16 -7.8 122.1 -7.8 Z M 151.2 0 L 161.4 0 L 161.4 -12.12 L 165.18 -17.7 L 174 0 L 184.8 0 L 172.08 -24.3 L 184.2 -42 L 173.4 -42 L 161.4 -23.94 L 161.4 -42 L 151.2 -42 L 148.8 -34.2 L 151.2 -34.2 Z M 192.9 0 L 221.04 0 L 221.04 -7.8 L 203.1 -7.8 L 203.1 -17.1 L 215.64 -17.1 L 215.64 -24.9 L 203.1 -24.9 L 203.1 -34.2 L 218.64 -34.2 L 221.04 -42 L 192.9 -42 L 190.5 -34.2 L 192.9 -34.2 Z M 229.92 0 L 258.06 0 L 258.06 -7.8 L 240.12 -7.8 L 240.12 -17.1 L 252.66 -17.1 L 252.66 -24.9 L 240.12 -24.9 L 240.12 -34.2 L 255.66 -34.2 L 258.06 -42 L 229.92 -42 L 227.52 -34.2 L 229.92 -34.2 Z M 266.94 0 L 277.14 0 L 277.14 -11.94 L 279.18 -12 C 292.08 -12 298.5 -16.98 298.5 -27.06 C 298.5 -37.02 292.08 -42 279.18 -42 L 266.94 -42 L 264.54 -34.2 L 266.94 -34.2 Z M 277.14 -19.8 L 277.14 -34.2 L 279.18 -34.2 C 284.88 -34.2 287.7 -31.86 287.7 -27.06 C 287.7 -22.2 284.88 -19.8 279.18 -19.8 Z" stroke-linecap="round" />
</g>
</g>
</g>
<g transform="matrix(1.9211538461538462 0 0 1.9211538461538462 630.27533343707 831.0388765164471)" id="tagline-600ebfe7-f9ba-4a7f-a56e-bf8ae8aadf81-logo"  >
<g style=""  paint-order="stroke"   >
		<g transform="matrix(1 0 0 1 0 -16.310000000000002)" id="tagline-600ebfe7-f9ba-4a7f-a56e-bf8ae8aadf81-logo-path-0"  >
<linearGradient id="SVGID_52928" gradientUnits="userSpaceOnUse" gradientTransform="matrix(1 0 0 1 1 -17.65)"  x1="-0.9874982833862305" y1="-4.3285000000000196" x2="-0.9874982833862305" y2="56.67149999999998">
<stop offset="0%" style="stop-color:rgb(250,217,97);stop-opacity: 1"/>
<stop offset="100%" style="stop-color:rgb(247,107,28);stop-opacity: 1"/>
</linearGradient>
<path style="stroke: none; stroke-width: 0; stroke-dasharray: none; stroke-linecap: butt; stroke-dashoffset: 0; stroke-linejoin: miter; stroke-miterlimit: 4; fill: url(#SVGID_52928); fill-rule: nonzero; opacity: 1;"  paint-order="stroke"  transform=" translate(-108.865, 8.75)" d="M 8.38 -17.5 L 1.25 -17.5 L 1 -15.25 L 2 -15.25 L 2 0 L 4.75 0 L 4.75 -7.13 L 8.38 -7.13 C 11.53 -7.13 13.53 -9 13.53 -12.28 C 13.53 -15.4 11.58 -17.5 8.38 -17.5 Z M 4.75 -9.38 L 4.75 -15.25 L 7.85 -15.25 C 9.65 -15.25 10.78 -14.18 10.78 -12.3 C 10.78 -10.55 9.68 -9.38 7.85 -9.38 Z M 20.9 0 L 30.82 0 L 31.07 -2.25 L 23.65 -2.25 L 23.65 -17.5 L 20.15 -17.5 L 19.9 -15.25 L 20.9 -15.25 Z M 48.33 0 L 51.08 0 L 45.58 -17.5 L 41.03 -17.5 L 40.55 -15.25 L 41.75 -15.25 L 36.95 0 L 39.7 0 L 41.03 -4.25 L 47 -4.25 Z M 41.75 -6.5 L 44.03 -13.73 L 46.28 -6.5 Z M 57.95 0 L 60.7 0 L 60.7 -13.08 L 67.33 0 L 70.83 0 L 70.83 -17.5 L 68.08 -17.5 L 68.08 -4.42 L 61.45 -17.5 L 57.2 -17.5 L 56.95 -15.25 L 57.95 -15.25 Z M 92.05 0.15 C 95.78 0.15 98.33 -2.3 98.33 -5.35 C 98.33 -9.95 90.05 -9.9 90.05 -12.9 C 90.05 -14.6 91.75 -15.15 92.6 -15.15 C 94.23 -15.15 95.05 -14.4 95.58 -13.73 L 97.13 -15.93 C 96.1 -16.82 94.63 -17.65 92.83 -17.65 C 89.28 -17.65 87.3 -15.53 87.3 -13.1 C 87.3 -7.68 95.58 -8.03 95.58 -5.03 C 95.58 -3.43 94.03 -2.35 92.13 -2.35 C 90.48 -2.35 88.78 -3.6 88.05 -4.45 L 86.58 -2.45 C 88.08 -0.73 89.88 0.15 92.05 0.15 Z M 105.7 0 L 108.45 0 L 108.45 -13.7 L 114.63 -1.98 L 120.83 -13.73 L 120.83 0 L 123.58 0 L 123.58 -17.5 L 120.08 -17.5 L 114.65 -7.2 L 109.2 -17.5 L 104.95 -17.5 L 104.7 -15.25 L 105.7 -15.25 Z M 140.82 0 L 143.57 0 L 138.07 -17.5 L 133.52 -17.5 L 133.05 -15.25 L 134.25 -15.25 L 129.45 0 L 132.2 0 L 133.52 -4.25 L 139.5 -4.25 Z M 134.25 -6.5 L 136.52 -13.73 L 138.77 -6.5 Z M 150.45 0 L 153.2 0 L 153.2 -7.13 L 156.05 -7.13 L 159.5 0 L 162.5 0 L 158.88 -7.45 C 160.8 -8.1 161.97 -9.78 161.97 -12.28 C 161.97 -15.4 160.02 -17.5 156.82 -17.5 L 149.7 -17.5 L 149.45 -15.25 L 150.45 -15.25 Z M 153.2 -9.38 L 153.2 -15.25 L 156.3 -15.25 C 158.1 -15.25 159.22 -14.18 159.22 -12.3 C 159.22 -10.55 158.13 -9.38 156.3 -9.38 Z M 171.95 0 L 174.7 0 L 174.7 -15.25 L 179 -15.25 L 179.25 -17.5 L 167.63 -17.5 L 167.38 -15.25 L 171.95 -15.25 Z M 186.63 0 L 197.05 0 L 197.3 -2.25 L 189.38 -2.25 L 189.38 -7.63 L 195.5 -7.63 L 195.75 -9.88 L 189.38 -9.88 L 189.38 -15.25 L 196.8 -15.25 L 197.05 -17.5 L 185.88 -17.5 L 185.63 -15.25 L 186.63 -15.25 Z M 204.68 0 L 207.43 0 L 207.43 -7.13 L 210.28 -7.13 L 213.73 0 L 216.73 0 L 213.1 -7.45 C 215.03 -8.1 216.2 -9.78 216.2 -12.28 C 216.2 -15.4 214.25 -17.5 211.05 -17.5 L 203.93 -17.5 L 203.68 -15.25 L 204.68 -15.25 Z M 207.43 -9.38 L 207.43 -15.25 L 210.53 -15.25 C 212.33 -15.25 213.45 -14.18 213.45 -12.3 C 213.45 -10.55 212.35 -9.38 210.53 -9.38 Z" stroke-linecap="round" />
</g>
		<g transform="matrix(1 0 0 1 4.662500000000023 16.45999999999998)" id="tagline-600ebfe7-f9ba-4a7f-a56e-bf8ae8aadf81-logo-path-1"  >
<linearGradient id="SVGID_52929" gradientUnits="userSpaceOnUse" gradientTransform="matrix(1 0 0 1 1 -17.5)"  x1="-18.98749828338623" y1="-37.24849999999998" x2="-18.98749828338623" y2="23.75150000000002">
<stop offset="0%" style="stop-color:rgb(250,217,97);stop-opacity: 1"/>
<stop offset="100%" style="stop-color:rgb(247,107,28);stop-opacity: 1"/>
</linearGradient>
<path style="stroke: none; stroke-width: 0; stroke-dasharray: none; stroke-linecap: butt; stroke-dashoffset: 0; stroke-linejoin: miter; stroke-miterlimit: 4; fill: url(#SVGID_52929); fill-rule: nonzero; opacity: 1;"  paint-order="stroke"  transform=" translate(-95.525, 8.75)" d="M 2 0 L 4.75 0 L 4.75 -7.13 L 7.6 -7.13 L 11.05 0 L 14.05 0 L 10.43 -7.45 C 12.35 -8.1 13.53 -9.78 13.53 -12.28 C 13.53 -15.4 11.58 -17.5 8.38 -17.5 L 1.25 -17.5 L 1 -15.25 L 2 -15.25 Z M 4.75 -9.38 L 4.75 -15.25 L 7.85 -15.25 C 9.65 -15.25 10.78 -14.18 10.78 -12.3 C 10.78 -10.55 9.68 -9.38 7.85 -9.38 Z M 30.55 0 L 33.3 0 L 27.8 -17.5 L 23.25 -17.5 L 22.78 -15.25 L 23.98 -15.25 L 19.18 0 L 21.93 0 L 23.25 -4.25 L 29.23 -4.25 Z M 23.98 -6.5 L 26.25 -13.73 L 28.5 -6.5 Z M 40.17 0 L 42.92 0 L 42.92 -17.5 L 39.42 -17.5 L 39.17 -15.25 L 40.17 -15.25 Z M 50.3 0 L 54.72 0 C 60.15 0 63.47 -3.13 63.47 -8.75 C 63.47 -14.18 60.35 -17.5 54.72 -17.5 L 49.55 -17.5 L 49.3 -15.25 L 50.3 -15.25 Z M 53.05 -2.25 L 53.05 -15.25 L 54.22 -15.25 C 58.25 -15.25 60.72 -12.93 60.72 -8.75 C 60.72 -4.73 58.4 -2.25 54.22 -2.25 Z M 80.22 0 L 82.97 0 L 82.97 -7.63 L 90.35 -7.63 L 90.35 0 L 93.1 0 L 93.1 -17.5 L 90.35 -17.5 L 90.35 -9.88 L 82.97 -9.88 L 82.97 -17.5 L 79.47 -17.5 L 79.22 -15.25 L 80.22 -15.25 Z M 110.35 0 L 113.1 0 L 107.6 -17.5 L 103.05 -17.5 L 102.57 -15.25 L 103.77 -15.25 L 98.97 0 L 101.72 0 L 103.05 -4.25 L 109.02 -4.25 Z M 103.77 -6.5 L 106.05 -13.73 L 108.3 -6.5 Z M 119.97 0 L 122.72 0 L 122.72 -7.13 L 125.57 -7.13 L 129.03 0 L 132.03 0 L 128.4 -7.45 C 130.32 -8.1 131.5 -9.78 131.5 -12.28 C 131.5 -15.4 129.55 -17.5 126.35 -17.5 L 119.22 -17.5 L 118.97 -15.25 L 119.97 -15.25 Z M 122.72 -9.38 L 122.72 -15.25 L 125.82 -15.25 C 127.63 -15.25 128.75 -14.18 128.75 -12.3 C 128.75 -10.55 127.65 -9.38 125.82 -9.38 Z M 139.4 0 L 143.83 0 C 149.25 0 152.58 -3.13 152.58 -8.75 C 152.58 -14.18 149.45 -17.5 143.83 -17.5 L 138.65 -17.5 L 138.4 -15.25 L 139.4 -15.25 Z M 142.15 -2.25 L 142.15 -15.25 L 143.33 -15.25 C 147.35 -15.25 149.83 -12.93 149.83 -8.75 C 149.83 -4.73 147.5 -2.25 143.33 -2.25 Z M 159.95 0 L 170.38 0 L 170.63 -2.25 L 162.7 -2.25 L 162.7 -7.63 L 168.83 -7.63 L 169.08 -9.88 L 162.7 -9.88 L 162.7 -15.25 L 170.13 -15.25 L 170.38 -17.5 L 159.2 -17.5 L 158.95 -15.25 L 159.95 -15.25 Z M 178 0 L 180.75 0 L 180.75 -7.13 L 183.6 -7.13 L 187.05 0 L 190.05 0 L 186.43 -7.45 C 188.35 -8.1 189.53 -9.78 189.53 -12.28 C 189.53 -15.4 187.58 -17.5 184.38 -17.5 L 177.25 -17.5 L 177 -15.25 L 178 -15.25 Z M 180.75 -9.38 L 180.75 -15.25 L 183.85 -15.25 C 185.65 -15.25 186.78 -14.18 186.78 -12.3 C 186.78 -10.55 185.68 -9.38 183.85 -9.38 Z" stroke-linecap="round" />
</g>
</g>
</g>
</svg>